<?xml version="1.0" standalone="no"?>
<!DOCTYPE svg PUBLIC "-//W3C//DTD SVG 20010904//EN"
 "http://www.w3.org/TR/2001/REC-SVG-20010904/DTD/svg10.dtd">
<svg version="1.0" xmlns="http://www.w3.org/2000/svg"
 width="350.000000pt" height="350.000000pt" viewBox="0 0 350.000000 350.000000"
 preserveAspectRatio="xMidYMid meet">
<metadata>
Created by potrace 1.14, written by Peter Selinger 2001-2017
</metadata>
<g transform="translate(0.000000,350.000000) scale(0.100000,-0.100000)"
fill="#000000" stroke="none">
<path d="M0 1750 l0 -1750 1750 0 1750 0 0 1750 0 1750 -1750 0 -1750 0 0
-1750z m1840 910 l0 -40 40 0 40 0 0 -80 0 -80 40 0 40 0 0 -80 0 -80 40 0 40
0 0 -40 0 -40 40 0 40 0 0 -80 0 -80 40 0 40 0 0 -80 0 -80 40 0 40 0 0 -40 0
-40 40 0 40 0 0 -80 0 -80 -160 0 -160 0 0 -40 0 -40 -80 0 -80 0 0 -160 0
-160 -40 0 -40 0 0 -280 0 -280 -40 0 -40 0 0 40 0 40 -40 0 -40 0 0 80 0 80
-40 0 -40 0 0 80 0 80 -40 0 -40 0 0 40 0 40 -40 0 -40 0 0 80 0 80 -40 0 -40
0 0 80 0 80 -40 0 -40 0 0 40 0 40 -40 0 -40 0 0 120 0 120 40 0 40 0 0 80 0
80 40 0 40 0 0 40 0 40 40 0 40 0 0 80 0 80 40 0 40 0 0 80 0 80 40 0 40 0 0
40 0 40 40 0 40 0 0 80 0 80 40 0 40 0 0 40 0 40 40 0 40 0 0 -40z m400 -1280
l0 -40 -40 0 -40 0 0 40 0 40 40 0 40 0 0 -40z m-160 -240 l0 -40 -40 0 -40 0
0 40 0 40 40 0 40 0 0 -40z m-80 -160 l0 -40 -40 0 -40 0 0 40 0 40 40 0 40 0
0 -40z"/>
</g>
</svg>
